<svg width="1130" height="1130" viewBox="0 0 1130 1130" fill="none" xmlns="http://www.w3.org/2000/svg">
<g clip-path="url(#clip0_6_19)">
<path d="M1119.83 655.085C1169.56 348.689 961.496 59.9866 655.099 10.2513C348.703 -39.4839 60.0005 168.581 10.2652 474.978C-39.47 781.375 168.595 1070.08 474.992 1119.81C781.389 1169.55 1070.09 961.482 1119.83 655.085Z" stroke="#D9D9D9" stroke-miterlimit="10"/>
<path d="M917.489 354.146C917.43 354.027 917.311 353.968 917.252 353.85M869.035 133.293C869.094 133.352 869.153 133.352 869.153 133.352C869.094 133.293 869.035 133.293 869.035 133.293ZM869.035 133.293C868.976 133.233 868.917 133.233 868.917 133.233C868.976 133.293 869.035 133.293 869.035 133.293ZM912.519 469.571L912.164 469.275M922.518 509.032V508.914C922.518 508.914 922.518 508.855 922.459 508.796C922.459 508.796 922.459 508.855 922.459 508.914V509.032H922.518ZM922.518 509.032L922.695 509.387C925.713 516.191 935.534 511.517 938.373 518.617C942.219 528.201 939.142 538.081 939.616 547.784C939.616 548.08 939.734 548.494 939.734 548.79C939.734 549.854 939.734 550.387 939.557 551.393C939.497 551.393 939.497 551.393 939.497 551.393C939.557 554.173 939.734 555.593 940.089 557.605C940.207 556.895 940.385 555.889 940.917 555.416C942.219 554.292 948.431 554.292 949.318 559.794C949.121 558.216 949.516 557.506 950.502 557.664C951.488 557.822 953.124 561.845 955.412 569.733C959.968 569.141 960.559 569.082 962.512 573.697C963.991 577.187 965.529 584.997 960.441 582.867C960.835 590.558 961.861 594.956 963.517 596.06C963.399 595.528 963.281 594.877 963.162 594.344C963.636 593.043 964.168 591.8 964.641 590.558C964.839 594.739 964.681 596.967 964.168 597.243C964.109 597.303 964.05 597.421 964.05 597.421C971.445 606.295 968.605 627.239 968.605 627.475C968.428 629.073 967.895 631.143 967.481 632.682C966.416 631.794 966.239 631.617 965.943 625.996L966.061 625.937C964.996 630.256 961.092 633.392 961.092 638.184C959.317 635.344 955.649 634.338 954.584 630.907C953.519 627.357 955.708 624.221 955.708 620.849C955.649 616.235 948.727 622.565 946.124 619.015C945.828 619.843 945.177 621.5 942.456 624.931C943.757 622.151 943.52 619.074 944.349 616.235C945.65 611.561 952.631 611.147 953.815 613.217C953.696 613.513 953.578 613.927 953.46 614.223C959.1 607.991 962.295 603.593 963.044 601.03L957.719 591.564C956.497 589.276 955.885 588.132 955.885 588.132C956.004 588.192 956.122 588.251 956.24 588.251C955.057 584.346 955.057 582.039 956.063 579.317L956.418 580.027C955.945 578.548 956.181 578.312 956.714 577.779C957.187 578.607 957.384 579.436 957.305 580.264C957.128 580.323 956.832 580.441 956.654 580.441C957.542 581.625 958.311 581.388 959.435 580.441C955.925 575.432 954.347 571.823 954.702 569.615C954.88 569.615 955.116 569.615 955.294 569.615C954.702 568.372 952.691 564.586 950.383 562.16C946.538 558.078 946.301 561.805 946.183 563.048C946.656 563.343 948.194 564.468 948.786 567.544C945.532 565.296 944.112 561.095 940.089 559.735C940.917 561.864 940.207 562.219 939.497 562.515C938.492 562.042 937.486 561.273 938.196 559.261C934.824 558.788 933.226 559.143 931.865 559.557C934.883 562.16 939.379 567.248 935.593 571.863C929.144 564.586 927.428 562.633 928.671 559.439C929.144 559.38 929.795 559.261 930.268 559.202C930.978 553.759 930.544 550.525 928.967 549.499C930.031 551.393 929.795 552.517 928.138 553.463C923.524 549.914 921.039 540.566 922.34 535.655C922.932 535.36 923.76 534.945 924.411 535.123C920.388 526.899 923.938 518.203 922.814 509.802C922.695 509.624 922.518 509.032 922.518 509.032ZM918.909 265.047C924.648 268.124 930.031 271.792 936.007 274.454C942.456 277.294 941.509 274.572 940.976 273.152C941.45 273.744 941.864 274.336 942.337 274.986C942.515 273.921 942.633 273.093 944.408 272.561L944.29 272.265C943.856 269.78 944.526 267.512 946.301 265.461C945.887 267.828 946.715 270.253 946.124 272.679C945.769 272.738 945.354 272.856 945.059 272.975C945.059 272.975 944.999 272.975 944.94 272.975C945.769 276.465 945.65 276.761 945.354 277.944C945.059 277.944 944.644 277.944 944.349 277.767C944.349 277.767 944.29 277.708 944.23 277.649C946.005 279.956 948.904 280.548 951.034 282.322C950.916 283.683 949.851 290.605 941.331 293.977C951.33 302.378 958.666 316.637 968.842 336.397C968.369 335.411 968.092 334.701 968.014 334.267C968.014 334.267 977.42 347.519 977.302 354.619C977.184 354.737 977.065 354.855 976.947 354.974C973.871 353.199 974.285 349.294 972.037 347.046C971.918 347.224 971.8 347.401 971.682 347.578C971.978 348.762 972.687 349.767 972.865 350.951C972.273 350.399 971.761 350.142 971.327 350.182C971.445 352.134 972.865 353.909 972.155 355.92C971.149 355.684 968.724 353.731 969.966 352.075C969.729 351.838 969.315 351.602 968.96 351.483C968.428 352.193 968.073 352.666 969.552 356.275C968.487 355.98 968.073 355.92 966.594 355.98H966.061C964.346 355.98 964.109 355.861 962.985 355.447C963.162 356.453 963.754 359.411 963.044 363.316C962.038 367.812 959.672 364.381 958.844 363.316C958.015 362.132 957.601 361.422 956.536 359.588C956.773 360.831 957.009 362.073 957.246 363.316C957.246 363.611 957.364 363.966 957.424 364.203C957.779 366.333 958.193 368.463 958.548 370.593C956.536 369.114 955.589 368.877 955.057 369.646C954.702 370.119 954.702 371.658 954.702 372.367C954.702 374.852 954.702 375.326 954.347 376.391C951.093 372.604 948.194 370.593 944.408 369.528C947.543 369.35 948.845 367.457 950.62 363.257C952.158 359.47 952.809 358.109 954.702 356.749C950.324 351.365 936.835 356.571 934.883 361.718C936.125 362.132 936.48 362.31 937.782 363.257C944.349 368.64 948.253 379.349 949.023 383.372C950.087 388.933 947.662 388.105 947.011 387.572C941.923 383.668 939.557 377.692 935.534 372.959C935.534 372.959 935.395 372.861 935.119 372.663C935.119 372.663 934.942 372.959 934.824 374.32C934.232 372.722 933.877 372.131 931.925 370.119C929.617 367.753 929.262 366.392 930.15 363.197C931.51 358.938 938.847 338.113 952.454 345.922C944.585 330.717 948.017 330.599 950.087 330.599C954.17 330.54 954.229 311.726 939.142 297.468C941.036 298.77 943.284 299.598 944.94 301.195C944.309 300.249 942.929 298.434 940.799 295.752C940.799 295.752 940.799 295.871 940.799 296.285C940.326 296.758 940.03 297.054 937.9 296.285C937.723 296.226 921.69 288.12 930.919 283.151C929.854 282.737 928.493 281.79 927.902 280.843C925.121 276.406 923.464 271.318 920.743 266.881C920.211 266.289 919.501 265.52 918.968 264.988L918.909 265.047ZM343.437 80.1057C345.035 79.8691 346.809 78.9816 351.01 76.8518C356.157 74.2487 356.867 73.9528 357.814 74.1895C358.05 74.6628 357.814 75.7277 353.968 77.7984C354.796 78.2125 355.92 78.1534 359.115 77.5026C361.541 76.9701 361.837 76.9701 363.079 76.8518C363.552 75.3136 363.612 74.8994 363.02 74.012C362.132 72.7696 360.535 72.5921 359.352 71.7638C361.6 71.6455 365.801 71.468 373.255 70.2256C379.171 69.2199 377.278 66.0251 377.278 66.0251C376.568 65.5518 374.971 65.5518 374.083 65.611C368.049 66.0251 362.606 67.7408 360.949 68.6282C360.949 68.6874 360.949 68.7466 360.949 68.8057C360.121 68.924 359.233 68.8057 358.464 69.1015C358.109 69.2199 358.05 69.7523 357.636 69.8115C358.05 69.989 358.346 70.1073 359.352 70.1665C358.997 70.2848 358.583 70.4623 358.228 70.6398C356.69 69.8706 355.21 70.4031 353.14 72.4738C353.021 71.5864 351.661 70.8764 352.489 69.8706C351.779 70.1665 349.649 71.1722 347.934 70.4623C347.697 70.3439 347.342 70.4623 347.164 70.5214C346.277 71.0539 345.981 72.2963 344.975 72.7104C345.094 72.3555 345.094 72.0794 344.975 71.8822C344.206 71.8822 343.141 73.5979 343.437 74.012C343.91 74.722 344.265 74.012 344.739 73.0654C347.046 73.7162 349.472 72.7104 351.72 73.657C344.739 76.3391 341.11 77.9167 340.834 78.39C341.189 79.3958 343.555 80.0466 343.615 80.0466L343.437 80.1057ZM209.553 130.157C212.866 128.086 228.13 117.674 228.248 117.555C228.071 117.733 227.893 117.91 227.716 118.088C229.372 117.851 229.786 117.792 234.874 114.893C239.844 111.758 246.825 112.113 250.02 105.96C248.659 106.078 247.417 106.67 246.115 107.025C248.6 105.546 251.085 104.066 253.629 102.706C252.682 103.711 251.558 104.599 250.493 105.486C252.505 105.191 257.533 101.937 257.948 101.463C257.474 101.641 256.824 101.996 256.409 102.232C257.948 101.345 259.486 100.517 260.965 99.4518C260.492 99.6884 259.9 100.043 259.427 100.28C259.427 100.28 261.675 98.2094 266.171 94.068C266.881 94.2455 268.656 94.6596 269.543 92.589C269.603 92.8256 269.662 93.0623 269.78 93.2989C272.206 94.068 273.389 91.7607 275.282 91.1691C274.572 91.2085 273.665 91.524 272.561 92.1157C276.82 89.4534 276.998 89.3942 280.429 88.7434C284.748 87.3235 287.529 83.478 291.493 81.5256C291.256 81.5256 290.96 81.6439 290.783 81.7031C290.783 81.4665 290.783 81.1115 290.842 80.8748C293.504 79.2775 296.936 79.8691 299.361 77.6801C299.125 77.6801 298.888 77.6801 298.651 77.6801C299.539 77.2068 300.604 76.9701 301.373 76.2602C300.978 76.2602 300.012 76.4968 298.474 76.9701C307.762 72.1188 317.997 69.634 327.582 65.611C328.232 65.3151 329.061 64.9602 329.712 64.6644C327.306 64.0333 322.119 65.1377 314.152 67.9774C317.761 62.4754 327.227 67.2675 329.416 59.2214C328.883 59.0439 328.173 58.8665 327.641 58.8665C324.979 59.2214 321.488 60.2272 320.009 60.8188C319.831 60.9371 319.654 60.9963 319.417 61.1146L319.713 60.9963H319.595L319.181 61.233C319.181 61.233 319.062 61.2329 319.062 61.2921H319.181V61.1738H319.24C319.24 61.1738 319.713 60.878 319.95 60.8188C317.189 61.4499 314.349 62.574 311.43 64.1911C311.904 63.7967 312.673 63.2642 313.738 62.5937C312.614 63.0078 311.608 63.6586 310.484 64.0727C310.72 63.9544 310.957 63.7769 311.194 63.6586C310.661 63.8953 309.951 64.2502 309.419 64.4869C309.951 64.1911 310.72 63.7769 311.253 63.5403C309.951 64.1911 308.354 65.0193 306.697 65.8476C280.903 79.2183 256.291 94.4822 233.04 111.58C219.965 121.164 207.305 131.34 195.117 142.049C200.619 137.316 211.032 128.56 214.168 126.607C212.748 127.968 211.091 129.092 209.553 130.335V130.157ZM919.323 259.013C917.726 256.587 916.247 254.989 908.792 248.245C902.107 242.21 900.864 240.85 900.273 239.193C900.332 239.075 900.45 238.838 900.509 238.72C901.515 238.483 902.048 238.424 905.657 239.548C904.71 236.886 903.822 234.993 899.504 231.502C893.055 226.296 884.891 223.988 878.264 219.078C871.402 214.049 866.254 207.127 859.51 202.039C857.321 200.383 854.067 198.43 851.286 198.489C850.576 198.549 850.399 198.608 849.689 198.844C851.76 201.27 855.014 202.217 856.966 204.82C867.319 211.446 890.038 235.288 900.924 246.825C910.39 256.764 912.756 259.131 914.886 260.728C913.052 258.362 912.105 256.824 910.922 254.161C911.435 254.28 912.519 254.93 914.176 256.114C916.602 257.829 918.731 259.249 919.323 258.953V259.013ZM412.598 103.002C412.716 103.357 412.894 103.711 414.314 104.126C414.609 103.889 414.964 103.534 415.142 103.179C415.024 102.942 414.787 102.706 414.609 102.528C414.728 102.292 414.964 101.937 415.201 101.759C418.869 107.38 423.129 108.444 428.217 104.954C426.915 102.292 424.726 100.221 423.602 97.4994C427.27 96.5528 430.642 93.5356 431.648 90.4C433.601 91.3466 435.967 89.9267 441.587 86.6136C447.622 83.0638 454.781 83.8921 461.17 81.9398C461.939 81.7031 463.004 81.2298 463.773 80.934C459.336 80.224 454.958 79.8691 450.639 79.9874C448.095 80.1649 446.971 80.224 444.96 80.8157C443.658 81.2298 442.771 82.3539 441.469 82.768C436.973 84.3062 432.181 84.957 427.684 86.6727C428.453 87.7377 428.098 88.1518 424.963 89.69C424.844 89.7492 410.764 98.6827 411.001 100.576C412.125 101.227 413.544 101.108 414.55 101.877C413.13 102.351 412.894 102.41 412.598 102.942V103.002ZM917.016 353.672C917.016 353.672 917.134 353.85 917.252 353.968C917.193 353.85 917.134 353.731 917.016 353.672ZM171.689 205.352C168.889 207.206 164.905 211.052 159.738 216.889C159.738 216.889 159.028 219.315 161.099 219.315C162.46 219.315 164.294 218.191 165.063 217.717C164.235 218.368 163.82 218.723 163.17 219.137C171.926 214.7 173.701 216.771 174.292 219.019C175.416 215.232 179.321 214.168 181.569 211.446C184.468 207.955 181.806 208.192 180.445 208.37C179.676 208.429 179.617 208.429 179.262 208.37C180.918 206.417 183.403 203.518 182.871 202.217C185.001 202.986 188.373 187.84 188.314 187.663C188.254 187.485 187.959 187.308 187.84 187.13C192.751 185.06 200.856 178.019 201.152 175.535C200.501 174.765 199.495 175.239 195.117 177.191C199.89 173.641 202.887 171.235 204.11 169.973C203.577 170.506 202.808 171.216 202.217 171.748C196.005 176.363 191.804 177.546 190.621 177.842C190.917 177.309 191.331 176.777 191.508 176.185C191.449 176.185 191.331 176.185 191.272 176.185C193.579 174.47 195.176 172.991 196.478 171.216C195.472 171.216 194.821 171.807 192.751 173.641C190.66 175.416 189.615 176.363 189.615 176.481C187.604 178.138 186.361 179.794 186.125 180.09C187.308 178.966 188.432 177.724 189.615 176.54C189.615 176.599 189.615 176.718 189.615 176.836C189.674 176.836 189.734 176.954 189.793 177.014C190.029 176.974 190.286 176.876 190.562 176.718C188.373 178.788 187.19 180.741 187.19 180.741C187.781 180.977 188.018 180.504 188.491 179.676C188.491 179.735 188.491 179.853 188.55 179.913C188.964 179.913 189.201 179.913 190.621 178.966C190.562 178.966 182.279 186.006 181.806 186.539C181.806 186.539 186.657 183.817 188.314 182.457C187.525 183.285 185.927 184.705 183.521 186.716C183.521 186.716 184.172 186.125 184.409 185.888C182.2 187.347 180.406 188.866 179.025 190.443C179.972 189.793 180.563 189.319 181.569 188.491C181.037 189.024 179.617 190.503 179.025 191.863C179.321 191.863 179.972 191.863 184.113 187.899C180.8 191.568 180.208 192.337 180.09 193.697C180.563 194.171 180.563 194.171 182.634 194.23C180.859 195.531 178.493 198.135 177.901 199.673C177.96 199.732 178.019 199.791 178.079 199.909C178.256 199.909 178.434 199.791 178.611 199.732C176.126 202.335 175.18 203.104 171.807 205.352H171.689ZM947.958 253.865C947.958 253.51 947.603 252.505 946.833 250.907C946.833 250.848 946.774 250.789 946.715 250.73C946.715 250.789 946.715 250.848 946.715 250.907C946.656 251.321 946.538 252.031 946.774 252.86C946.656 252.8 946.479 252.682 946.36 252.623C946.774 253.096 947.898 254.457 947.958 253.865ZM232.567 125.838C231.325 126.193 229.964 125.602 228.721 126.134C227.065 126.844 226 127.613 223.87 129.506C224.994 128.382 225.408 127.85 225.468 127.436C224.817 127.081 221.977 128.678 218.072 131.636C224.343 126.016 225.053 125.069 225.527 124.477C225.468 124.477 225.408 124.477 225.349 124.477C224.403 125.128 223.042 126.252 221.385 127.791C221.74 127.317 221.74 127.258 221.799 127.021C221.563 127.021 221.326 126.903 218.25 129.743C218.25 129.684 218.368 129.565 218.368 129.447C218.131 129.447 218.013 129.447 216.002 130.867C216.12 130.867 216.238 130.867 216.297 130.867C216.357 131.163 216.238 131.459 216.297 131.754C216.297 131.754 216.416 131.814 216.475 131.873C216.179 132.05 215.824 132.346 215.528 132.524C215.351 132.819 215.351 132.819 215.351 132.997C215.351 132.997 215.469 133.056 215.469 133.115C215.469 133.115 210.854 134.89 210.914 136.192C211.15 136.251 211.15 136.31 211.564 136.192C204.524 141.28 207.601 142.108 207.66 142.108C208.961 142.404 213.931 140.925 218.841 137.848C219.847 137.257 221.09 136.369 222.036 135.718C223.693 134.476 224.994 132.819 226.887 131.873C226.828 131.873 226.71 131.754 226.651 131.695C226.828 131.222 227.183 130.275 232.685 125.957L232.567 125.838ZM192.337 144.238H192.277L191.922 144.652C192.987 143.705 194.112 142.759 195.176 141.812C193.993 142.818 192.987 143.705 192.396 144.238H192.337ZM516.487 70.0481C516.487 70.0481 516.487 69.989 516.487 69.9298C518.558 69.3382 520.392 69.1015 523.941 68.8649C521.338 69.1607 520.806 69.8115 520.273 70.7581C524.178 72.0596 527.55 74.5445 531.632 75.2544C535.123 75.9052 537.194 74.5445 538.022 74.012C538.259 73.8345 538.909 73.3612 539.619 72.5329C539.619 72.5329 539.205 72.3555 538.377 72.0005C537.016 71.468 537.135 71.1131 538.377 70.2256C534.117 70.3439 532.342 69.3973 530.153 68.2733C527.55 66.9125 525.539 66.2617 520.924 66.3209C519.268 66.3209 518.262 66.4392 516.664 66.5576C516.901 67.6816 516.96 68.8649 514.771 68.4507C516.369 68.8057 517.374 68.924 518.913 69.1015C517.138 69.1015 516.073 69.1015 514.535 68.924C514.83 69.279 515.659 70.2256 516.487 70.1073V70.0481ZM658.476 85.2528C658.279 85.3317 658.082 85.3712 657.885 85.3712C659.246 85.5487 660.665 85.4303 662.026 85.6078C666.818 86.1994 671.433 87.7968 676.225 88.2701C679.361 88.5659 681.55 88.2701 682.023 87.7377C681.55 86.6136 673.444 85.3712 673.385 85.3712C671.374 85.1937 669.421 84.6021 667.41 84.3654C663.742 84.5429 660.902 81.7031 657.293 81.8214C656.228 81.8806 656.11 82.2356 656.051 82.5314C656.642 83.6555 658.003 84.1288 658.536 85.312L658.476 85.2528ZM543.583 76.556H543.702C549.499 76.4968 553.286 75.1952 555.002 74.367C555.238 74.2487 555.475 74.1303 555.711 74.012C553.641 72.178 548.553 70.4031 545.476 70.4623C541.453 70.6989 540.921 75.0178 542.223 76.0235C542.814 76.4968 543.406 76.4968 543.642 76.4968L543.583 76.556ZM700.008 87.2644C700.008 87.2644 700.067 87.0277 700.127 86.9094C695.985 84.3062 692.554 83.3005 688.235 83.4188C686.401 83.5371 685.159 83.7738 683.206 84.5429C683.739 84.4246 684.981 84.8387 687.407 85.667C691.962 87.2644 698.825 89.6309 700.008 87.2052V87.2644ZM938.787 234.756C938.787 234.756 938.787 234.46 938.61 234.224C938.196 233.454 936.835 231.798 936.184 231.561C936.303 232.035 937.072 233.218 937.663 233.869C937.959 234.224 938.669 234.993 938.847 234.756H938.787ZM943.52 243.808C943.52 243.808 943.52 243.749 943.52 243.63C943.461 243.394 942.988 243.216 942.633 243.098V243.216C942.751 244.044 943.402 243.985 943.52 243.808ZM947.603 258.48C947.603 258.48 947.543 258.303 947.484 258.243C947.248 258.165 947.07 258.145 946.952 258.184C946.479 258.362 946.301 258.953 946.419 260.018C946.419 259.9 946.301 259.782 946.242 259.663C946.242 259.782 946.242 259.9 947.721 263.036C948.372 262.621 949.082 261.675 947.543 258.539L947.603 258.48ZM944.999 246.588C944.999 246.588 945.236 246.588 945.236 246.293C944.881 245.938 944.408 245.464 944.23 245.524C944.053 245.642 944.644 246.529 944.999 246.648V246.588ZM431.766 68.4507L434.665 69.1607C435.494 69.279 436.322 69.1015 436.618 69.0424C436.618 68.6874 436.618 68.6282 436.322 68.3916C436.559 68.3916 436.854 68.2733 437.032 68.2141C438.728 68.8846 441.272 68.4902 444.664 67.0309C445.058 68.2141 448.253 67.7802 454.248 65.7293C454.248 65.7293 454.012 66.2026 453.893 66.3801C453.302 66.9717 453.242 67.0309 453.183 67.2083C453.361 67.2083 453.952 67.2083 454.84 66.9125L455.136 66.3209V66.1434C455.431 65.4335 455.372 65.3743 455.313 65.0785C454.248 64.6052 453.952 64.546 451.231 64.7827C451.586 64.4277 452.118 64.0136 452.473 63.7178C450.698 63.7178 449.101 64.6052 447.326 64.6644C447.326 64.7235 447.444 65.4926 449.16 65.3743C448.154 65.7293 447.03 65.9068 446.025 66.2617C445.433 66.2617 444.486 66.3801 440.582 67.3267C440.582 67.445 440.7 67.6225 440.7 67.8C440.049 67.6816 439.517 67.6816 438.748 67.6816C439.931 67.3267 440.641 67.0309 441.587 66.6167C440.168 66.2026 439.103 66.0843 437.328 66.0251C438.215 65.9068 439.635 65.5518 440.463 65.256C441.587 65.5518 444.309 66.2026 444.605 65.0785C444.546 64.9602 444.427 64.8418 444.309 64.7827C443.54 64.546 442.711 64.7235 442.002 64.3686C440.049 63.4811 439.813 63.5403 439.576 63.5994C439.576 63.5994 439.655 63.9347 439.813 64.6052C437.269 65.0785 434.843 66.2026 432.181 66.0251L431.648 66.3209C431.766 66.6759 431.766 66.6759 431.707 66.9125C431.53 67.0309 431.412 67.09 430.642 66.735C430.642 67.0309 430.642 67.0309 430.761 67.445C430.761 67.445 430.642 67.445 430.583 67.445C429.755 67.2675 428.868 67.09 427.093 67.2083C427.093 67.6816 427.093 67.9775 427.093 68.5099C430.051 68.3916 431.569 68.3521 431.648 68.3916L431.766 68.4507ZM940.444 237.832C940.267 237.537 940.03 237.3 939.912 237.182H939.852C939.852 237.182 939.852 237.773 940.562 239.016C940.74 238.779 940.74 238.306 940.444 237.832ZM412.953 67.6225C414.136 67.445 416.266 67.1492 418.692 67.3267C417.706 67.4844 417.153 67.6028 417.035 67.6816C417.035 67.6816 417.035 67.8 417.153 67.8591C416.088 68.0958 415.497 68.2141 414.669 68.2141C415.201 69.3973 416.739 69.5157 420.644 68.5691C420.348 68.6874 419.993 68.8057 419.757 68.924C420.111 69.0424 420.466 69.0424 420.881 68.9832C420.526 69.3973 419.875 70.1665 421.531 69.989C422.478 69.8706 423.957 69.4565 424.49 69.279C424.608 69.279 424.726 69.2199 424.785 69.2199C423.661 68.6874 422.596 68.6282 421.117 68.924C421.709 68.8057 422.005 68.6282 422.596 68.2733C422.478 68.2733 422.241 68.2141 422.123 68.1549C423.365 67.8591 424.549 67.5042 425.791 67.2083C425.732 66.4392 425.614 65.0785 421.413 65.1377C418.455 65.3151 415.201 66.0251 411.829 67.3267C412.48 67.445 412.775 67.5042 413.071 67.5042L412.953 67.6225ZM894.179 1013.45C892.286 1014.46 890.511 1015.58 888.618 1016.59C892.365 1014.02 894.297 1012.52 894.416 1012.09C893.942 1012.21 893.351 1012.33 892.937 1012.44C882.879 1018.01 873.768 1025.11 863.178 1029.78C853.239 1034.16 846.928 1037.1 844.246 1038.59C836.2 1043.15 835.372 1044.27 835.253 1044.98C838.921 1046.4 880.276 1022.98 891.28 1015.4C892.168 1014.81 893.351 1013.98 894.179 1013.39V1013.45ZM888.914 1017.53C891.576 1017.35 914.886 1001.68 922.754 995.11C922.873 994.992 922.991 994.873 923.109 994.814C921.335 995.406 920.27 997.003 918.554 997.713C918.909 997.2 922.34 994.124 928.848 988.484C927.369 989.667 925.831 990.791 924.352 991.974C925.062 991.324 925.713 990.673 926.423 990.022C916.838 998.186 889.209 1017.3 888.854 1017.53H888.914ZM941.272 976.06C936.658 979.905 932.457 984.224 927.961 988.247C928.552 987.892 929.026 987.419 929.617 987.064C929.499 987.241 929.262 987.478 929.026 987.715C933.463 983.514 937.9 979.314 942.515 975.231C942.16 975.468 941.686 975.823 941.331 976.06H941.272ZM151.81 217.836C153.23 217.244 160.803 213.635 172.636 199.199C173.878 197.72 177.546 193.224 175.002 193.283C174.825 193.283 174.647 193.283 174.47 193.342C169.855 194.821 166.719 198.844 162.282 200.738C161.513 202.808 160.744 203.755 159.028 204.82C159.916 205.826 158.318 207.66 154.177 211.801C151.988 213.99 145.303 220.557 151.81 217.836ZM853.712 982.863C853.712 982.863 853.712 982.863 853.771 982.804C853.653 982.863 853.535 982.982 853.475 983.1C853.535 983.041 853.653 982.982 853.712 982.863ZM969.256 912.815C969.552 912.46 969.848 912.105 970.143 911.75C969.848 912.105 969.611 912.46 969.315 912.815H969.256ZM928.967 987.715C928.138 988.484 927.31 989.253 926.482 990.022C927.606 989.075 928.434 988.306 928.967 987.715ZM844.069 1014.16C842.708 1014.16 841.406 1013.92 840.046 1013.92C838.685 1013.98 835.845 1014.1 830.994 1017.24C825.433 1020.85 820.818 1025.64 815.552 1029.66C821.883 1028.54 822.652 1028.06 829.929 1023.15C836.851 1018.54 842.353 1014.87 843.655 1014.28C843.773 1014.28 843.95 1014.16 844.009 1014.16H844.069ZM366.806 423.425C368.463 423.661 368.877 423.543 368.995 423.425C369.173 423.188 368.522 422.833 367.871 422.892C367.22 422.892 366.984 423.188 366.865 423.484L366.806 423.425ZM150.627 300.899V301.136C150.45 301.964 150.154 302.911 149.148 305.869C147.314 311.312 144.238 320.364 146.841 318.707C149.207 317.228 153.585 309.715 155.656 305.159C158.259 299.48 156.721 299.539 156.188 299.598C155.893 299.598 154.887 299.894 152.461 301.254C150.627 302.319 150.627 302.201 150.568 300.959L150.627 300.899ZM88.2701 318.471C88.2701 318.471 88.3885 318.352 88.4476 318.234C88.4476 318.234 88.3293 318.352 88.2701 318.471ZM155.893 297.764C156.721 296.581 159.206 293.09 161.809 287.706C162.696 285.813 163.347 284.275 163.584 283.683C163.406 283.742 163.17 283.861 163.051 283.92C159.62 286.286 156.248 292.558 156.366 292.972C155.242 295.456 155.124 296.581 155.833 297.764H155.893ZM926.008 589.079C926.304 584.997 924.825 582.453 923.997 580.974C923.879 581.151 923.76 581.447 923.642 581.625C922.636 583.873 921.039 587.837 921.63 588.665C921.985 588.547 922.163 588.428 923.228 587.008C918.495 594.995 913.348 603.16 912.874 603.81L912.224 604.757C910.567 607.419 909.739 609.135 908.615 612.212C915.478 608.603 925.358 598.545 926.068 589.02L926.008 589.079ZM957.719 681.017C958.015 680.011 957.897 678.532 957.719 677.468C956.773 677.645 955.59 677.941 954.643 678.118C946.538 679.775 938.255 680.248 930.15 682.2C927.902 682.733 926.245 683.739 925.239 685.218C924.588 686.105 924.234 686.993 923.879 687.703C922.104 691.726 921.394 696.044 919.974 700.186C917.312 708.054 911.218 714.148 908.851 722.194C906.485 730.24 908.378 738.641 907.076 746.747C909.798 745.859 911.809 745.859 914.117 746.628C914.117 746.392 918.613 724.324 922.281 720.715C923.938 723.082 924.174 723.437 923.287 730.773C921.985 741.067 927.547 739.115 928.671 738.641C928.197 739.706 926.837 742.96 927.31 746.865C927.487 746.983 927.724 747.102 927.902 747.22C931.155 745.682 933.936 737.34 933.818 734.263C932.575 734.677 931.806 735.092 930.682 736.097C932.043 727.696 928.375 719.769 928.138 711.486C933.345 718.112 936.303 702.493 942.515 700.896C935.711 699.653 928.848 703.617 922.104 700.422C919.441 699.18 920.565 697.05 926.068 693.086C932.043 688.827 935.77 689.3 943.165 690.187C949.614 691.016 950.087 690.542 952.809 687.88C952.513 688.294 952.099 688.886 951.744 689.3C955.412 684.961 957.404 682.2 957.719 681.017ZM969.788 721.484C966.771 721.662 962.452 723.318 966.002 726.454C966.475 726.868 967.067 727.223 967.481 727.519C967.245 727.696 967.244 727.696 967.185 727.815C967.185 727.815 967.185 727.815 967.245 727.815C967.363 727.815 967.422 727.755 967.54 727.519C972.747 730.359 978.071 730.654 979.669 728.11C980.793 726.336 979.254 724.679 978.959 724.502C978.959 725.152 979.609 725.862 979.905 726.454C977.006 721.603 970.972 721.425 969.788 721.484ZM940.503 575.708C940.503 575.708 940.503 575.59 940.444 575.59C940.444 575.59 940.444 575.708 940.503 575.708ZM942.988 701.014C942.81 700.896 942.692 700.837 942.574 700.837C942.692 700.837 942.81 700.955 942.988 701.014ZM939.557 590.026C940.858 592.865 946.005 588.192 946.064 588.132C946.952 587.304 947.484 586.417 947.543 585.588C947.662 584.346 947.189 583.754 945.709 582.098C942.456 578.43 941.686 577.306 941.095 576.3C940.858 576.418 940.74 576.3 940.444 575.649C940.444 575.649 940.444 575.768 940.444 575.827C940.444 576.418 940.326 576.951 940.03 579.021C939.497 582.394 938.669 588.132 939.497 590.026H939.557ZM922.873 770.944L925.535 771.713C925.535 771.713 925.417 772.009 925.358 772.186C924.47 772.423 923.346 772.66 922.459 772.837C922.814 773.232 923.622 773.665 924.884 774.139L925.121 773.961C927.014 773.429 928.73 772.541 930.564 771.95C930.446 772.245 930.268 772.601 930.15 772.837C930.86 772.719 931.865 772.601 932.398 772.186C933.108 771.654 933.167 770.707 933.818 770.175C933.936 770.056 934.114 769.997 934.291 769.938C934.173 769.938 933.995 769.82 933.877 769.761H933.818C932.99 769.642 932.22 770.116 931.392 769.879C929.617 770.057 928.73 770.234 927.665 770.589C925.594 768.222 922.577 770.471 922.577 770.471C917.312 768.932 908.91 769.583 904.592 770.352C901.752 770.885 899.385 772.66 896.486 773.074C894.357 773.37 892.404 772.541 890.334 772.364C890.807 773.074 891.103 773.429 892.049 773.784C890.274 775.085 889.505 774.08 888.144 772.305C884.891 772.305 883.589 772.778 882.702 773.133C881.696 769.938 880.039 769.228 879.329 769.228C876.371 770.175 878.383 772.66 881.341 776.505L881.518 776.387C886.31 777.688 891.103 775.499 895.895 776.328C894.475 772.719 912.638 774.73 912.815 774.79C912.756 774.908 912.638 775.085 912.519 775.263C916.01 773.902 919.146 771.95 922.814 770.944H922.873ZM832.828 765.915H833.005C823.007 763.845 816.676 761.715 807.092 757.277C812.18 755.739 815.907 751.775 820.759 749.823C828.923 748.64 833.893 757.041 841.702 756.745C848.447 756.508 854.836 753.373 861.699 754.083C862.172 754.083 862.823 754.201 863.296 754.26C867.911 755.207 868.503 757.455 868.976 759.407C866.373 761.182 863.415 762.602 859.628 761.123C861.581 764.259 861.936 764.85 868.088 765.797C877.436 767.217 876.43 770.885 875.898 771.95C875.78 772.127 875.602 772.423 875.484 772.6C874.301 773.902 868.207 776.328 868.207 770.293C867.083 774.553 858.445 772.364 832.828 765.856H832.887L832.828 765.915ZM833.479 765.915C833.834 765.915 834.543 765.915 834.662 765.856C834.662 765.856 833.005 765.619 832.887 765.738C832.887 765.738 832.946 765.797 833.419 765.974L833.479 765.915ZM946.479 770.53C946.952 769.524 945.946 769.583 944.763 769.702C930.327 773.074 921.216 785.38 918.909 789.876C919.737 789.58 921.749 788.988 928.197 785.439C934.114 782.185 945.059 773.429 946.419 770.53H946.479ZM888.085 728.82C888.085 728.82 893.528 727.105 889.15 732.488C890.452 731.009 892.049 728.88 892.937 727.105C895.481 722.076 894.83 716.16 897.256 711.072C900.214 704.86 905.834 700.482 908.615 694.151C910.567 689.714 910.39 687.821 910.153 684.567C913.703 689.004 915.241 686.46 915.714 685.159C916.957 681.905 916.542 675.397 907.905 662.854C908.694 663.367 909.344 663.742 909.857 663.979C909.857 663.979 909.916 663.683 907.136 659.127C908.319 659.246 912.105 659.246 911.04 655.222C911.159 655.341 911.277 655.577 911.336 655.696C911.454 655.637 911.691 655.518 911.809 655.459C911.809 654.927 911.632 653.862 910.981 651.673C913.939 654.335 915.833 650.904 915.655 648.715C915.655 648.064 915.241 647.236 915.004 646.644L915.122 646.526C916.069 645.461 924.293 636.113 919.678 635.995C918.081 635.995 915.063 637.296 913.643 638.006C914.432 637.493 914.945 637 915.182 636.527C914.551 636.251 913.348 636.212 911.573 636.409C914.472 629.96 909.561 626.825 908.319 626.943C907.431 627.239 907.254 627.416 906.603 628.185C906.603 628.008 906.603 627.771 906.603 627.594C906.544 627.594 897.906 628.067 894.475 649.602C894.297 647.65 894.061 647.236 892.818 645.993C891.221 649.129 890.511 651.14 889.683 654.572C886.843 653.921 887.849 649.898 885.068 649.188C881.814 658.24 866.964 670.664 864.953 667.528C864.835 667.41 864.835 667.173 864.775 666.996C862.764 671.729 862.054 674.864 861.817 679.834C858.918 677.527 852.351 678.651 852.765 673.444C847.677 678.473 845.548 680.603 846.317 690.957C846.317 691.311 850.931 725.034 856.67 725.389C858.445 725.507 860.042 722.667 860.812 721.307C861.817 727.046 874.182 727.637 877.791 725.744C875.898 733.672 884.358 730.595 888.085 728.88V728.82ZM868.384 472.174C868.384 472.174 868.089 472.588 867.97 472.825C868.148 472.648 868.266 472.47 868.384 472.174ZM913.17 452.592C915.537 448.332 916.365 446.675 915.892 444.9C915.892 444.782 915.773 444.605 915.714 444.486C916.187 445.255 916.779 446.32 916.897 448.746C917.075 451.882 916.247 455.786 915.537 459.218C914.235 465.666 913.584 469.157 914.649 472.47C913.427 470.971 912.224 469.768 911.04 468.861C911.04 468.861 911.218 468.98 911.336 469.039C910.942 468.723 910.705 468.487 910.626 468.329C910.626 468.329 911.099 468.565 911.277 468.684C907.668 464.247 909.029 459.928 913.111 452.592H913.17ZM912.519 469.926L911.573 468.98C911.573 468.98 911.573 469.039 911.573 469.098L912.283 469.689L912.519 469.926ZM916.424 474.718C916.424 474.718 916.424 474.718 916.483 474.718C915.892 473.949 915.3 473.121 914.59 472.352C914.59 472.352 914.59 472.411 914.59 472.47C914.886 473.121 915.359 474.008 916.365 474.659L916.424 474.718ZM808.157 756.035C807.802 755.621 807.565 755.384 807.447 755.384C807.447 755.384 807.388 755.384 807.388 755.503C807.388 755.68 807.743 756.449 808.157 756.094V756.035ZM745.386 531.1C745.031 530.567 744.558 529.858 744.262 529.266C737.793 533.447 733.632 534.334 731.779 531.928C727.933 526.84 726.868 519.09 726.336 515.363C724.147 499.389 711.072 490.041 703.44 477.321C702.552 475.842 701.487 473.772 700.541 472.293C699.653 470.814 698.233 469.039 697.287 467.619C695.926 467.737 694.092 467.915 692.731 467.974C692.179 472.391 691.016 475.606 689.241 477.617C688.472 476.552 687.584 474.955 686.993 473.772C686.342 474.837 685.218 476.079 684.153 476.73C682.91 476.375 681.136 476.138 679.834 476.197C679.42 476.73 678.828 477.499 678.355 478.031C677.941 477.617 677.349 477.026 676.935 476.552C676.403 476.907 675.752 477.321 675.219 477.676C674.332 476.789 673.681 475.132 673.563 473.89C663.328 497.496 636.231 506.725 625.878 530.153C615.88 552.813 622.565 578.844 611.265 601.266C609.608 604.58 607.419 609.549 604.225 611.442C591.268 619.252 532.342 512.937 550.742 477.617C550.15 477.203 549.381 476.671 548.79 476.257C548.671 475.014 548.316 473.358 547.843 472.174C547.251 471.997 546.423 471.76 545.831 471.642C546.186 472.411 546.837 473.358 547.015 474.186C548.671 480.694 539.974 487.379 534.886 486.61C525.48 485.19 527.136 474.008 520.51 470.222C527.077 469.453 527.905 467.501 528.674 465.548C522.995 465.844 518.203 464.897 510.452 459.04C498.679 449.101 497.082 443.007 496.549 440.996C475.251 429.637 451.053 448.391 430.051 434.547C427.98 433.186 425.259 431.293 423.129 429.992C413.249 424.135 401.653 430.524 391.654 425.732C378.994 419.638 380.236 401.357 366.037 396.624C365.209 396.328 364.026 396.447 363.138 396.328C363.138 396.328 360.062 399.937 355.033 403.309C360.003 404.552 360.713 405.676 362.842 415.438L377.929 447.799C386.152 456.97 416.503 456.2 417.922 431.411C423.661 437.564 418.987 446.498 423.72 452.887C428.453 459.277 438.215 457.739 442.534 464.779C443.895 466.968 444.131 470.754 443.599 473.298C441.942 481.522 430.406 503.767 398.34 529.088C397.689 529.562 335.509 578.489 321.725 565.296L270.194 430.11C269.603 428.572 268.833 426.501 268.301 424.963C264.988 415.083 265.757 409.285 266.644 402.54C260.314 411.06 260.373 413.959 260.61 419.816C254.398 411.296 252.386 406.445 251.617 398.162C245.228 409.226 244.636 417.449 257.356 440.049C263.746 451.408 271.752 474.363 281.376 508.914C287.529 530.982 294.037 542.755 304.627 550.978C309.596 554.824 318.944 562.042 320.955 566.893C323.618 573.224 320.778 575.472 315.631 579.554C333.143 586.141 344.088 588.783 348.466 587.482C371.263 580.658 382.78 577.858 383.017 579.081C383.313 580.56 388.992 616.412 334.681 684.567C280.903 752.071 320.778 789.639 321.251 789.935C321.133 790.763 321.015 791.828 320.955 792.656C321.843 805.85 330.481 816.913 331.191 830.165C332.078 846.731 313.264 849.748 308.768 862.586C302.97 879.211 323.499 889.032 319.654 905.124C318.234 911.159 313.264 914.827 310.602 916.779C318.53 924.293 326.043 931.392 316.104 957.719C306.461 983.218 284.216 976.829 283.979 976.71C279.66 974.758 227.952 919.796 225.763 917.43C209.612 900.214 175.771 849.038 175.594 848.683C166.483 831.112 168.908 810.464 160.981 792.538L160.152 790.941C159.975 790.586 139.801 756.922 143.942 748.581C130.808 742.132 104.421 710.007 114.597 691.962C103.238 679.657 115.13 659.837 100.576 648.596C100.043 649.129 99.2743 649.839 98.6827 650.43C97.9136 650.194 96.967 649.839 96.1979 649.602C95.3105 650.726 93.4764 651.732 92.0565 651.969C78.5281 638.401 69.851 633.037 66.0251 635.876C38.8105 656.051 35.4974 648.3 29.9361 635.344C29.8178 635.048 16.9204 597.894 13.489 546.068C12.0691 524.947 20.5885 504.773 19.9377 483.711C19.8194 484.48 19.6419 485.545 19.5236 486.314C22.6592 441.824 70.4623 363.611 70.9356 362.961C78.2717 352.311 81.5848 348.17 83.6555 347.342C86.6136 346.099 88.566 348.703 91.0508 349.176C93.2989 349.649 94.2455 349.294 103.238 343.082C111.462 337.403 114.657 335.746 119.567 334.504C120.947 334.149 128.717 333.458 142.877 332.433C147.61 332.315 150.746 332.196 146.308 342.195C143.232 349.117 137.789 355.033 136.902 362.961C138.972 377.515 173.641 404.848 180.09 383.963C183.048 374.32 186.716 372.249 189.26 372.249C190.325 372.249 191.804 372.131 192.869 372.308C203.341 374.261 209.671 384.022 219.788 386.685C229.609 389.288 238.187 381.124 248.008 383.313C248.718 384.792 249.902 386.685 250.907 387.927C265.343 386.152 271.614 373.314 276.702 362.961C286.346 342.195 282.973 337.935 281.731 337.166C281.731 337.166 258.066 337.817 253.037 338.172C242.92 338.822 237.122 336.87 235.229 336.278C235.584 335.687 235.998 334.859 236.353 334.267C234.874 333.853 232.804 333.557 231.265 333.557C231.975 329.652 231.561 325.57 233.395 321.902C227.124 315.158 236.058 309.064 235.229 302.438C230.851 299.48 227.124 298.355 221.74 301.787C221.622 303.384 221.977 305.514 222.628 306.934C221.208 306.934 219.315 307.23 217.895 307.585C217.776 308.295 217.599 309.241 217.481 310.01C216.83 308.413 215.765 306.342 214.759 304.922C213.043 312.199 218.546 318.589 217.421 325.807C217.007 325.215 216.416 324.387 216.002 323.736C216.002 325.038 215.292 326.872 214.345 327.818C213.28 326.99 211.387 326.458 210.085 326.576C210.559 327.227 211.209 328.055 211.683 328.706C210.559 329.711 209.08 330.954 207.896 331.9C207.778 333.616 207.541 335.924 207.364 337.58C206.713 337.994 205.885 338.527 205.234 338.941C195.886 332.729 201.566 325.452 203.4 323.085C201.862 322.967 198.726 322.789 197.839 318.293C196.833 312.969 198.549 304.686 198.549 304.567C200.442 295.871 194.348 289.067 193.165 281.139C192.869 279.069 191.39 276.525 191.213 274.454C191.035 272.561 191.804 269.958 192.81 268.419C192.455 267.709 192.041 266.822 191.686 266.171C191.035 266.408 190.148 266.704 189.497 266.94C188.846 266.585 187.959 266.171 187.308 265.816C180.386 270.786 177.783 272.679 178.848 282.677C179.913 292.913 190.088 298.651 191.686 308.591C188.432 309.833 185.415 307.703 182.22 307.881L182.102 307.999C182.102 307.999 181.155 320.837 175.239 327.759C170.328 327.167 167.134 332.019 162.341 331.782C158.437 324.978 171.216 325.038 174.529 320.423C184.764 306.106 169.618 280.193 169.5 279.897C164.294 271.673 155.774 279.897 148.912 279.778C148.912 279.778 148.852 279.778 147.196 279.897C147.077 279.897 124.832 297.823 113.177 317.938C105.427 331.427 97.322 339.237 88.3885 341.781C85.1345 339.414 85.5487 335.273 83.5372 332.255C82.8272 332.433 81.8806 332.67 81.2298 332.906C84.3063 325.965 86.5939 321.034 88.0927 318.116C88.0927 318.116 87.7377 318.53 87.6194 318.766C99.5702 293.445 110.614 281.001 120.75 281.435C128.737 281.731 148.616 257.415 140.925 243.926C145.48 241.086 145.717 241.027 152.698 239.193C157.253 227.775 205.53 201.033 206.003 200.856C206.536 201.329 207.186 201.98 207.66 202.453C212.984 196.715 216.061 189.378 221.326 183.64C222.214 182.752 223.397 181.628 224.343 180.859L224.58 180.741C228.662 177.369 230.378 177.132 232.685 176.777C228.662 181.096 225.822 186.539 220.675 189.911C221.444 189.852 222.509 189.733 223.338 189.674C221.602 192.317 219.67 193.737 217.54 193.934C217.836 193.165 218.309 192.159 218.605 191.39C215.942 195.709 216.12 196.005 217.54 198.608C217.54 198.608 221.799 198.135 227.597 197.661C227.006 198.075 226.237 198.608 225.645 198.963C226 199.614 226.532 200.501 226.887 201.152C227.124 201.152 249.073 199.14 253.747 196.123C260.669 185.77 266.585 179.025 271.318 176.067C272.561 176.777 273.921 178.138 274.691 179.321C282.559 178.433 280.725 169.855 284.985 166.069C286.799 164.451 294.983 163.209 309.537 162.341C309.301 161.454 309.005 160.33 308.709 159.442C307.94 159.028 306.934 158.555 306.224 158.141C306.106 157.667 305.987 157.017 305.928 156.484C292.913 158.811 285.202 159.561 282.796 158.732C286.74 152.737 296.206 143.962 311.194 132.405C302.083 125.957 299.539 133.707 298.71 136.251C268.242 148.024 269.78 157.253 270.49 161.691C248.758 180.622 235.229 190.266 229.905 190.621C230.201 189.793 230.555 188.669 230.851 187.84C226.473 192.337 223.634 195.078 222.332 196.064C221.681 195.768 220.794 195.354 220.143 195.058C222.904 194.033 224.501 191.883 224.935 188.609C234.046 190.384 239.844 172.221 242.27 164.471C235.466 169.973 232.567 171.571 227.242 173.523C226.651 173.109 225.882 172.576 225.349 172.221C225.763 169.737 227.42 167.607 227.479 165.063C233.04 159.857 236.235 152.284 243.69 148.971C248.6 146.663 249.251 146.367 253.392 144.356C265.402 138.44 276.17 130.394 287.765 123.768H288.002C293.268 120.336 294.51 119.508 295.634 118.502C295.989 118.206 296.285 117.851 296.758 117.378C295.161 117.792 292.913 118.147 291.256 118.265C295.575 115.662 300.367 114.302 304.804 111.994C304.331 112.527 303.739 113.237 303.266 113.769C308.886 113.355 313.087 109.273 318.293 107.735C318.293 108.444 318.234 109.332 318.175 110.042C322.001 109.056 324.229 108.267 324.86 107.675C325.629 107.794 326.694 107.971 327.463 108.089C329.593 105.25 329.948 104.717 335.095 102.942C335.746 103.297 336.574 103.83 337.225 104.185C335.864 105.013 334.03 106.255 332.729 107.202C337.521 104.895 342.313 104.185 344.384 103.83C343.792 104.244 343.082 104.776 342.491 105.191C343.319 104.954 344.443 104.599 345.271 104.362C345.981 104.776 346.928 105.309 347.638 105.723C345.981 106.255 343.851 107.025 342.195 107.557C347.283 107.912 350.142 108.129 350.773 108.208C350.892 108.859 351.069 109.805 351.247 110.456C364.085 113.237 368.877 114.242 370.238 117.496C372.072 121.815 364.321 127.14 360.653 127.85C353.731 129.21 348.643 123.886 342.254 123.058C344.936 133.904 347.795 138.952 350.832 138.203C350.477 136.783 349.708 134.89 348.998 133.648C358.346 133.352 365.327 125.424 374.852 125.72C375.326 126.311 375.917 127.021 376.331 127.613C378.698 122.288 380.118 118.719 380.591 116.905C380.236 116.313 379.763 115.485 379.349 114.893C385.561 111.698 388.755 112.941 388.933 118.739C383.49 118.975 382.484 119.153 381.656 123.294C394.376 124.359 403.369 112.408 416.029 113.296C414.787 114.183 413.13 115.485 411.947 116.491C430.997 115.544 433.778 114.124 437.328 112.231C437.17 112.034 434.764 110.18 430.11 106.67C451.014 112.941 461.88 115.938 462.708 115.662C458.804 111.58 457.206 107.735 457.857 104.303C458.981 98.8602 466.021 98.3869 467.264 93.0623C468.743 93.1806 470.695 93.5947 472.115 94.1272C472.115 94.1272 472.115 94.1272 472.529 94.1272C473.18 94.3638 474.127 94.6597 474.777 94.8963C478.031 101.937 476.73 110.101 480.339 116.964C478.386 122.111 478.15 122.643 471.287 125.542C487.379 124.477 485.604 118.206 484.717 114.834C491.58 111.284 495.129 118.384 500.513 119.685C493.118 113.296 482.883 110.456 477.736 101.286C480.102 99.7476 481.601 97.7361 482.232 95.2513C482.824 95.6654 483.593 96.257 484.184 96.6712C484.243 98.5052 484.539 100.872 484.953 102.647C485.939 103.12 489.351 103.554 495.188 103.948C494.636 103.12 492.25 101.661 488.03 99.5701C488.681 99.7476 489.627 99.9251 490.278 100.103C490.81 99.6884 491.52 99.0968 492.053 98.6235C491.461 98.2685 490.692 97.7361 490.1 97.3811C490.1 97.3811 500.986 99.8068 507.731 100.103C504.536 95.6654 502.761 94.6005 497.2 93.7131C497.2 93.7131 497.2 93.7131 498.265 93.2398C504.359 91.7015 510.866 93.4764 516.842 90.9916C516.191 90.6958 515.304 90.3408 514.594 90.045C513.292 83.7738 516.546 83.8329 530.272 84.0696C531.277 83.0047 533.052 82.1172 534.472 81.8214C534.472 81.8214 538.318 82.9455 547.902 82.4722C547.31 81.9989 546.541 81.4073 545.95 80.9932C546.6 80.9932 547.429 80.9932 548.08 80.9932C549.697 78.9028 551.59 77.6209 553.759 77.1476C581.329 76.556 603.574 97.1445 631.143 96.6712C631.498 96.1387 632.031 95.3696 632.386 94.8371C632.208 94.1272 631.913 93.2398 631.735 92.5298C645.283 95.9021 656.997 106.315 672.261 103.238C672.025 102.469 671.729 101.404 671.492 100.635C678.355 98.3869 684.744 101.877 691.311 102.469C691.311 102.469 691.311 102.469 689.773 102.114C689.3 101.7 688.59 101.108 688.117 100.635C689.813 100.556 692.12 100.674 695.039 100.99C693.441 100.28 691.311 99.3926 689.655 98.6827C689.418 98.0319 689.063 97.1445 688.827 96.4937C714.266 94.3638 716.041 95.7837 722.668 101.049C734.204 110.338 747.575 103.948 760.058 105.486C771.003 106.847 782.067 107.025 793.071 108.385C794.431 108.563 796.147 109.391 797.271 110.101C796.62 109.924 795.792 109.628 795.141 109.45C804.193 112.763 805.672 113 809.932 113.71C803.385 110.949 799.717 108.78 798.928 107.202C820.522 106.019 873.117 120.454 881.696 129.92C880.986 129.92 880.039 129.92 879.329 129.92C880.394 130.394 885.837 132.997 890.334 136.487C877.791 143.054 870.81 130.098 860.693 128.027C864.085 130.275 866.373 131.853 867.556 132.76C867.201 133.293 866.669 134.062 866.314 134.594C875.07 139.209 884.476 142.463 892.641 148.261C889.742 147.137 889.209 146.959 885.068 146.604C885.601 147.492 886.251 148.734 886.725 149.681C886.251 150.272 885.66 151.041 885.186 151.574C887.908 154.059 888.5 154.591 891.517 159.738C891.221 160.33 890.807 161.099 890.452 161.691C879.684 159.324 877.022 159.975 874.715 160.566C875.602 166.305 890.57 174.825 890.689 174.884C890.807 174.943 907.905 185.178 916.661 195.354C916.602 196.182 916.483 197.306 916.365 198.194C917.785 199.929 920.546 202.828 924.648 206.891C924.648 206.891 924.648 206.891 923.642 207.305C925.003 212.57 928.966 216.416 931.51 221.03C931.984 221.563 932.516 224.284 932.99 226.651C932.457 226.059 931.747 225.29 931.215 224.758H931.156C930.801 223.929 931.333 222.687 931.51 221.918C914.294 203.282 891.339 191.804 872.526 175.12H872.644C873.117 174.41 873.768 173.464 874.241 172.754C866.964 152.994 853.416 146.782 849.512 146.841C853.535 149.799 854.6 150.509 858.327 152.757C857.676 152.757 856.729 152.816 856.079 152.875C856.493 154.591 857.38 156.78 858.149 158.377C846.494 150.509 845.252 150.213 839.986 148.911C839.572 149.385 838.981 150.036 838.507 150.568C838.862 153.25 844.088 158.752 854.185 167.074C848.979 174.292 843.122 169.086 841.998 167.962C842.53 167.548 843.24 167.015 843.773 166.601C843.773 166.601 843.773 166.601 843.477 166.424C842.175 166.246 840.401 166.069 839.099 166.069H838.389C838.389 166.069 838.33 166.069 836.851 166.069C835.253 166.069 833.124 165.832 831.585 165.595C831.645 165.654 831.763 165.773 831.881 165.832C824.841 167.666 817.209 159.856 810.524 167.133C805.199 172.931 804.726 201.033 829.751 201.507C824.9 197.129 822.198 194.171 821.646 192.632C821.646 192.632 831.349 198.667 833.124 203.696C834.189 203.045 835.786 202.335 836.969 201.98C835.904 201.033 834.721 199.436 834.248 198.075C839.927 198.075 848.033 199.673 854.659 207.186C854.008 207.068 853.12 206.95 852.47 206.891C890.748 229.668 900.391 272.738 894.475 285.576C893.706 285.872 892.7 286.227 891.931 286.464C889.998 285.517 888.006 283.92 885.956 281.672C885.541 282.145 884.95 282.796 884.476 283.328C884.121 282.796 883.648 282.027 883.293 281.494C884.003 283.032 884.476 285.34 884.358 287.055C883.648 286.937 882.702 286.819 881.992 286.7C891.753 295.042 882.702 307.881 889.15 317.051C894.83 325.097 905.952 326.99 910.626 336.219C911.849 338.665 913.387 344.127 915.241 352.607C913.939 352.785 912.283 353.258 911.04 353.731C911.04 354.382 911.04 355.21 911.04 355.861C898.38 360.713 893.351 336.693 893.706 334.444C894.238 334.859 894.948 335.391 895.481 335.864C894.889 332.196 894.475 331.072 888.736 328.114L888.973 327.937H888.381C888.381 327.937 888.559 328.055 888.618 328.055C884.417 326.635 879.98 326.28 875.898 324.505C875.543 323.144 875.661 321.074 876.371 319.891C871.283 317.465 869.094 310.602 862.35 310.602C856.138 310.602 859.273 320.127 853.061 320.009C852.351 320.009 851.523 319.536 850.872 319.358C850.222 314.152 849.571 313.974 846.908 313.146C847.322 312.377 848.21 311.489 848.328 310.602C848.565 308.768 845.489 300.544 839.75 302.852C839.572 302.911 823.184 314.211 831.053 322.908C840.756 333.616 855.073 326.339 866.077 332.078C865.012 337.817 858.563 341.307 859.392 347.815C859.687 350.359 859.924 352.311 869.922 363.375C878.56 372.604 885.423 378.935 892.108 383.904C891.576 384.259 890.925 384.732 890.393 385.087C886.961 383.549 884.831 379.94 880.986 379.053C881.341 379.23 889.979 382.958 891.103 394.139C890.688 394.613 890.156 395.204 889.742 395.618C896.092 396.999 899.878 400.016 901.101 404.67C900.924 405.262 900.214 405.853 899.859 406.386C902.284 411.592 902.225 412.125 901.752 415.556C901.101 415.674 900.214 415.793 899.563 415.852C898.498 419.047 897.137 434.074 899.918 440.286C899.918 440.286 899.918 440.286 900.628 439.576C899.326 447.977 899.09 449.279 892.759 455.55C885.778 462.413 875.957 464.72 868.68 471.05C867.97 468.625 867.674 467.737 864.716 465.785C867.083 470.577 867.497 471.405 861.817 478.682C861.699 478.564 848.506 468.21 845.666 491.698C850.458 495.662 852.47 499.33 850.222 508.5C848.033 515.363 841.347 516.842 837.502 517.138C838.271 515.777 839.276 513.884 839.986 512.464C840.539 500.079 841.801 493.276 843.773 492.053C843.773 489.391 843.773 483.119 839.75 481.344C837.561 480.339 813.186 482.528 814.842 496.253C817.919 521.93 845.607 534.354 849.157 559.735C850.458 568.786 846.731 599.906 833.242 589.907C832.828 596.593 826.616 614.282 817.564 609.49C818.451 608.07 819.694 606.118 820.581 604.698C815.612 584.76 793.367 578.311 785.971 560.208C770.116 570.798 775.145 596.474 775.795 599.373C778.339 611.206 788.929 617.359 795.141 626.588C805.791 642.443 802.477 662.204 809.932 678.947C810.287 679.716 811.47 680.248 812.062 680.84C796.325 683.739 790.586 670.9 784.374 642.798C779.108 619.193 776.505 611.502 767.867 618.364C765.738 610.437 764.909 607.124 766.743 593.043C771.595 555.771 754.97 528.201 749.764 520.687C750.001 529.207 748.166 529.976 745.445 531.218L745.386 531.1ZM358.346 276.584C359.372 277.057 360.535 277.037 361.837 276.525C356.63 284.571 357.695 288.298 367.753 296.403C374.024 301.491 375.503 303.325 376.095 306.638C369.054 305.573 365.682 318.293 366.215 322.612C367.043 329.534 373.196 332.847 378.165 335.509C379.644 336.278 379.644 336.515 379.822 337.048H379.999V337.225C386.921 341.426 392.719 334.326 399.405 335.273H399.523C399.227 310.484 398.991 295.575 388.401 285.162C380.946 277.885 380.709 276.17 380.295 273.389C381.183 272.265 383.194 271.555 384.614 271.259C383.431 268.656 386.823 266.546 394.79 264.929C392.956 263.45 392.601 263.095 393.548 259.013C394.198 256.114 395.145 251.795 386.211 251.381C376.45 250.907 372.959 261.734 364.44 263.509C363.257 263.45 362.547 263.036 361.718 262.089C361.659 267.177 357.34 271.318 358.464 276.643L358.346 276.584ZM292.913 258.539C290.783 262.207 295.042 262.917 306.402 264.87C307.407 262.266 309.005 257.948 312.081 259.131C312.081 257.711 312.022 257.533 310.484 256.705C309.064 255.995 309.005 255.759 309.064 254.22C311.726 254.575 314.329 253.806 317.11 251.854C317.406 251.617 317.82 251.321 318.116 251.085C312.495 248.127 302.201 251.795 294.924 256.883C295.2 256.607 295.378 256.409 295.457 256.291C295.457 256.291 293.918 257.415 293.208 258.184C293.445 258.007 293.741 257.711 293.977 257.533L293.208 258.243H293.09L292.853 258.48L292.913 258.539ZM305.573 301.55C314.862 302.378 319.95 296.403 321.251 294.569C326.162 287.765 316.696 276.11 304.745 268.774C296.226 263.568 287.647 273.152 279.128 268.774C278.812 267.552 281.198 264.732 286.286 260.314C280.015 256.883 275.755 254.989 269.958 257.888L269.188 257.001L269.603 257.77L269.839 257.948C264.396 260.847 260.787 267.118 256.646 274.395C251.854 282.796 250.02 284.334 245.642 287.943C247.358 289.185 248.008 289.659 249.428 292.439C250.612 294.747 252.386 298.296 254.28 298.71C264.929 301.136 272.324 289.599 282.914 292.025C291.019 293.859 296.936 300.84 305.514 301.609L305.573 301.55ZM631.735 608.839C631.439 608.898 631.084 609.194 630.374 610.022C631.084 611.561 631.262 611.738 631.321 611.561C631.321 611.442 631.321 611.087 631.262 610.851C631.321 610.851 631.439 610.792 631.498 610.732L631.676 610.555C631.913 610.2 632.09 609.845 632.09 609.49C632.09 609.313 632.09 608.78 631.735 608.839ZM1067.7 735.387L1067.58 735.447C1070.19 726.454 1069.54 717.698 1067.11 717.994C1066.52 718.171 1066.16 718.526 1065.45 719.532C1065.57 720.005 1065.57 720.419 1065.63 721.603C1065.57 721.543 1065.45 721.425 1065.34 721.425C1064.86 721.78 1064.68 722.253 1064.68 722.49C1064.68 722.49 1064.98 722.332 1065.57 722.017C1065.87 724.738 1065.22 733.376 1065.22 733.435C1065.04 733.968 1064.33 734.382 1064.03 734.855C1062.5 737.281 1061.49 739.943 1059.72 742.191C1058.65 743.552 1058.06 743.374 1057.64 743.019C1055.87 741.659 1054.98 740.949 1052.26 743.67C1051.95 743.946 1051.45 745.997 1050.78 749.823C1051.08 750 1058.89 753.964 1065.16 735.742C1065.04 738.523 1065.16 739.41 1065.45 739.884C1065.51 739.884 1065.63 739.884 1065.69 739.884V740.061C1066.7 738.996 1066.99 738.346 1067.41 737.162L1067.82 736.157V735.742L1067.7 735.92C1067.7 735.802 1067.82 735.683 1067.82 735.565L1067.7 735.387ZM630.433 610.969C630.966 621.559 630.611 629.25 629.309 633.865C626.233 645.047 619.193 634.811 619.133 634.693C616.116 629.428 617.477 623.216 619.015 615.998C620.672 608.425 621.5 603.515 618.897 599.373C618.483 599.373 617.536 599.077 617.299 597.717L617.95 598.131C617.95 598.131 617.714 597.835 617.654 597.717C618.187 597.303 618.542 597.184 619.252 597.125C620.021 597.125 624.044 597.303 628.836 603.219C630.079 604.757 631.913 607.715 630.197 609.963C630.138 610.082 630.019 610.141 630.433 610.91V610.969ZM622.328 600.202C621.204 598.841 620.613 599.551 620.613 599.61C620.613 599.61 620.317 600.379 621.263 600.379C621.382 600.379 621.677 600.379 622.21 600.261C622.21 600.261 622.21 600.261 622.269 600.261L622.328 600.202ZM1024.16 709.77C1013.86 709.948 1012.86 723.141 1003.45 724.62C999.665 725.212 1001.85 713.379 1001.85 713.261C1001.8 713.438 1001.68 713.616 1001.62 713.793C1002.86 702.848 1003.39 697.819 996.057 698.529C992.862 699.417 990.022 700.896 986.413 705.274C987.005 701.842 985.821 701.073 985.348 700.718C984.697 700.955 984.461 701.073 983.692 702.375C988.07 709.888 991.856 716.396 998.896 714.385C996.293 717.757 991.797 717.461 988.602 719.709C993.217 723.673 987.419 728.584 989.845 732.725C990.732 732.784 991.383 732.843 994.873 725.981C994.518 729.116 994.341 730.832 995.938 733.139C997.772 735.742 1001.14 736.038 1003.33 738.109C1006.76 741.363 1006.76 741.777 1007.59 763.549C1007.12 762.425 1005.64 758.993 998.6 772.66C1002.21 771.062 1006.35 771.181 1009.96 769.583C1006.23 780.114 1013.98 779.7 1014.63 779.345C1015.4 778.931 1021.91 773.843 1020.85 771.358C1020.67 771.358 1020.49 771.299 1020.37 771.24C1022.7 770.096 1024.12 769.287 1024.63 768.814C1024.63 768.814 1024.63 768.341 1024.63 768.163L1024.81 768.696C1025.64 767.631 1026.17 766.921 1027.06 764.436C1027.95 767.69 1031.44 769.347 1032.2 772.66C1033.51 777.925 1030.67 783.368 1032.97 788.633C1035.75 795.023 1039.01 791.887 1039.07 791.887C1040.25 790.645 1040.37 788.101 1040.66 786.444C1041.61 780.232 1038.77 774.198 1039.66 767.986C1040.55 761.537 1044.87 756.272 1045.69 749.823C1045.93 747.989 1045.69 745.504 1045.4 743.67C1045.34 743.315 1036.23 709.829 1024.28 710.007L1024.16 709.77ZM805.85 747.989C805.455 746.963 805.199 746.234 805.081 745.8C805.081 745.8 805.14 745.8 805.199 745.8C807.211 744.794 809.577 745.622 811.529 744.38C813.6 743.078 816.144 740.594 816.913 738.286C820.049 729.294 817.15 720.538 815.612 715.805C821.291 725.507 822.652 727.755 828.154 724.738C826.202 722.786 827.562 720.833 828.331 720.538C828.686 720.774 829.219 721.07 829.515 720.833L828.568 719.887H828.864C828.864 719.887 828.509 719.532 828.391 719.414H828.331C821.232 712.551 816.361 710.026 813.718 711.841C810.346 705.806 805.909 700.304 803.424 693.796C802.004 690.01 802.833 685.75 800.939 682.082C799.638 679.42 798.218 678.947 795.496 678.059C794.668 679.479 794.609 679.775 794.786 681.076C793.426 679.302 792.479 678.414 790.823 677.349C791.572 677.665 792.223 677.744 792.775 677.586C793.84 673.681 788.279 669.066 788.219 669.007C783.723 665.398 778.162 663.446 773.725 659.778C768.045 655.104 764.377 648.478 758.283 644.218C756.213 642.798 751.894 639.781 746.214 639.84C745.682 639.84 745.208 639.84 744.676 639.959C753.314 641.674 766.684 669.362 784.078 710.362C796.088 738.582 801.531 750.888 805.791 748.166L805.85 747.989ZM988.365 719.828C988.365 719.828 988.543 719.709 988.602 719.65C988.602 719.65 988.425 719.769 988.365 719.828ZM1011.02 792.893C997.831 809.873 992.625 831.822 977.125 847.322C968.132 856.315 965.943 838.152 965.943 837.975C965.706 834.346 970.972 822.573 981.739 802.655C981.069 803.365 979.728 804.686 977.716 806.619C977.716 804.666 978.959 803.01 979.136 801.058C977.835 803.897 972.273 802.261 962.452 796.147C958.666 803.444 955.806 807.348 953.874 807.861C947.662 809.518 939.083 816.558 935.356 831.112C932.516 829.633 932.102 829.515 928.02 831.112C928.552 825.847 922.695 824.427 921.512 820.167C920.743 821.114 905.538 836.673 897.965 839.69C897.61 843.004 897.374 843.891 895.776 847.382C895.658 847.027 895.481 846.553 895.362 846.198C894.573 846.987 893.785 848.269 892.996 850.044C892.996 848.328 892.996 846.553 894.238 841.051C890.511 843.359 887.553 845.193 879.862 854.244C872.348 863.06 869.804 864.953 865.84 867.142C859.155 870.869 851.346 871.579 844.424 874.655C835.727 878.56 829.456 887.139 819.161 888.085C819.102 887.08 819.398 885.66 819.93 884.772C805.021 892.404 800.584 909.325 798.691 916.542C798.06 919.027 797.33 920.684 796.502 921.512C796.561 920.743 796.502 919.737 796.265 919.027C786.799 930.091 790.172 945.946 781.948 957.424C776.86 964.464 768.577 968.487 764.318 976.296C764.022 976.829 764.14 977.716 764.081 978.308C768.459 981.917 780.765 977.006 789.758 973.456C790.349 973.22 849.275 951.566 860.102 959.613C860.22 960.954 856.749 967.659 849.689 979.728C857.676 974.226 866.373 969.788 873.827 963.576C868.976 973.042 858.504 975.291 851.05 981.325C854.185 980.911 855.25 980.142 863.77 973.989C863.572 974.265 860.259 977.184 853.83 982.745C853.83 982.745 853.949 982.686 853.949 982.627C854.304 982.745 854.777 982.922 855.132 983.041C852.706 990.436 843.063 992.625 842.175 1001.14C842.964 1001.78 848.289 1000.53 858.149 997.417C856.887 998.6 855.645 999.468 854.422 1000.02C854.836 1000.02 855.369 1000.02 855.783 1000.02C855.388 1001.12 854.422 1002.56 852.884 1004.34C915.478 974.995 953.164 932.99 966.475 916.306C965.765 917.075 964.878 918.199 964.227 918.968C965.529 917.371 966.89 915.773 968.191 914.117C967.954 914.412 967.599 914.827 967.363 915.182L967.777 914.649L968.014 914.353C968.369 913.939 968.842 913.348 969.197 912.874C968.96 913.17 968.664 913.584 968.428 913.88C970.025 911.691 974.995 904.947 978.249 896.368C981.029 888.973 984.52 881.814 987.064 874.3C989.253 867.674 987.655 860.397 990.85 853.949C999.409 836.87 1003.81 825.334 1004.04 819.339C1004.69 803.365 1007.71 798.691 1011.5 792.716C1011.5 792.716 1011.5 792.716 1011.38 792.716C1011.32 792.716 1011.26 792.716 1011.14 792.834L1011.02 792.893ZM954.82 729.471C956.654 730.536 959.672 729.353 960.441 727.341C960.618 726.927 960.618 726.572 960.618 726.276C960.382 724.206 958.015 722.549 955.59 722.727C953.637 723.2 953.46 724.679 953.401 725.152C953.282 726.04 953.046 728.465 954.88 729.471H954.82ZM942.337 625.109C941.982 625.523 941.627 625.937 941.391 626.115C941.864 625.641 942.16 625.346 942.278 625.109H942.337ZM944.822 602.272C946.064 602.331 948.727 598.013 949.91 595.646C949.91 595.646 950.561 591.978 950.679 590.203C951.152 584.405 948.49 584.938 948.49 584.938C945.769 587.068 942.633 602.095 944.881 602.272H944.822ZM948.253 575.058C949.792 571.804 950.561 569.851 950.561 568.313C950.561 568.254 950.561 568.136 950.561 568.017C952.513 569.792 954.406 573.164 954.17 576.3C954.11 577.128 953.874 577.72 953.756 578.075C952.158 574.466 950.324 573.993 947.721 576.477V576.596C947.721 576.359 947.839 576.004 947.839 575.768C947.839 574.703 947.958 574.643 948.076 574.525C948.135 574.525 948.194 574.584 948.372 574.998L948.253 575.058ZM948.668 574.88H948.845V574.525L948.608 574.88H948.668ZM922.4 508.855C922.4 508.855 922.4 508.855 922.4 508.796C922.4 508.796 922.4 508.796 922.4 508.855ZM974.344 682.496C973.93 683.088 973.516 683.739 973.042 684.33C973.397 681.609 973.042 678.828 973.516 676.107C973.752 674.608 974.186 673.563 974.817 672.971C974.817 672.971 974.403 673.208 974.226 673.326C972.392 674.746 970.439 677.408 969.552 686.105C969.473 685.869 969.394 685.691 969.315 685.573C968.96 686.697 969.433 695.985 969.848 698.056C970.617 702.316 971.623 702.493 972.333 702.256C969.789 691.489 976.77 691.726 976.888 691.726C975.941 687.762 976.06 685.809 978.308 678.769C976.947 678.355 974.226 681.55 974.403 682.496H974.344ZM631.203 612.566C631.203 612.566 631.321 612.744 631.38 612.862C631.025 611.916 630.67 611.028 630.315 610.141C630.315 610.437 630.374 610.792 630.433 611.087C630.67 611.62 630.966 612.093 631.262 612.566H631.203ZM396.624 829.455L396.21 828.568C396.21 828.568 396.328 828.864 396.328 829.041C395.677 827.562 395.677 827.562 394.908 827.148C394.711 827.661 394.553 831.053 394.435 837.324C393.488 835.727 393.311 835.313 392.779 833.538C390.294 839.631 390.235 842.649 392.128 858.149C394.435 877.436 390.826 915.063 379.763 915.892C375.917 916.187 368.285 910.626 365.623 901.633C363.079 893.173 359.825 849.156 359.884 848.861C360.239 842.885 366.096 841.229 368.936 837.206C369.824 835.963 370.119 834.484 371.007 833.301C371.421 832.709 372.19 831.999 372.722 831.467C377.101 826.971 377.633 820.522 380.828 815.434C382.721 812.358 383.431 808.63 386.152 806.086C389.525 805.14 392.187 813.068 393.843 819.871C395.086 825.196 395.559 826.971 396.683 829.455H396.624ZM395.677 827.266C395.5 826.911 395.441 826.497 395.204 826.142C395.204 826.32 395.323 826.497 395.382 826.675C395.441 826.852 395.559 827.089 395.677 827.266ZM922.577 509.269L922.459 508.855C922.459 508.855 922.518 509.151 922.577 509.269Z" stroke="#D9D9D9" stroke-miterlimit="10"/>
</g>
<defs>
<clipPath id="clip0_6_19">
<rect width="1130" height="1130" fill="white"/>
</clipPath>
</defs>
</svg>
