<svg width="79" height="79" viewBox="0 0 79 79" fill="none" xmlns="http://www.w3.org/2000/svg">
<path d="M56.3615 71.5938H6.98653V49.375C6.98653 48.7202 6.72643 48.0923 6.26345 47.6293C5.80047 47.1663 5.17253 46.9062 4.51778 46.9062C3.86302 46.9062 3.23509 47.1663 2.77211 47.6293C2.30913 48.0923 2.04903 48.7202 2.04903 49.375V74.0625C2.04903 74.7173 2.30913 75.3452 2.77211 75.8082C3.23509 76.2711 3.86302 76.5312 4.51778 76.5312H56.3615C57.0163 76.5312 57.6442 76.2711 58.1072 75.8082C58.5702 75.3452 58.8303 74.7173 58.8303 74.0625C58.8303 73.4077 58.5702 72.7798 58.1072 72.3168C57.6442 71.8539 57.0163 71.5938 56.3615 71.5938ZM4.51778 41.9688C5.17253 41.9688 5.80047 41.7087 6.26345 41.2457C6.72643 40.7827 6.98653 40.1548 6.98653 39.5V29.625C6.98653 28.9702 6.72643 28.3423 6.26345 27.8793C5.80047 27.4163 5.17253 27.1562 4.51778 27.1562C3.86302 27.1562 3.23509 27.4163 2.77211 27.8793C2.30913 28.3423 2.04903 28.9702 2.04903 29.625V39.5C2.04903 40.1548 2.30913 40.7827 2.77211 41.2457C3.23509 41.7087 3.86302 41.9688 4.51778 41.9688ZM3.57965 22.0212C3.87645 22.1478 4.19517 22.2148 4.51778 22.2188C4.84039 22.2148 5.1591 22.1478 5.4559 22.0212C5.76115 21.9081 6.03885 21.7314 6.27059 21.5028C6.61315 21.1556 6.8452 20.7148 6.93747 20.2359C7.02973 19.757 6.97808 19.2615 6.78903 18.8119C6.67592 18.5066 6.4992 18.2289 6.27059 17.9972C6.0358 17.7724 5.75894 17.5962 5.4559 17.4788C5.1591 17.3522 4.84039 17.2852 4.51778 17.2812C4.02742 17.2784 3.54733 17.4216 3.1387 17.6927C2.73007 17.9638 2.41143 18.3504 2.22339 18.8033C2.03535 19.2562 1.98644 19.7548 2.0829 20.2356C2.17935 20.7163 2.4168 21.1575 2.76496 21.5028C3.00522 21.7205 3.2807 21.8958 3.57965 22.0212ZM4.51778 12.3438C5.17253 12.3438 5.80047 12.0836 6.26345 11.6207C6.72643 11.1577 6.98653 10.5298 6.98653 9.875V7.40625H56.3615C57.0163 7.40625 57.6442 7.14615 58.1072 6.68317C58.5702 6.22019 58.8303 5.59225 58.8303 4.9375C58.8303 4.28275 58.5702 3.65481 58.1072 3.19183C57.6442 2.72885 57.0163 2.46875 56.3615 2.46875H4.51778C3.86302 2.46875 3.23509 2.72885 2.77211 3.19183C2.30913 3.65481 2.04903 4.28275 2.04903 4.9375V9.875C2.04903 10.5298 2.30913 11.1577 2.77211 11.6207C3.23509 12.0836 3.86302 12.3438 4.51778 12.3438ZM75.9387 40.4381C76.1247 39.9862 76.1723 39.4892 76.0757 39.0102C75.979 38.5312 75.7423 38.0916 75.3956 37.7472L58.1143 20.4659C57.6421 20.0615 57.0346 19.8502 56.4132 19.8742C55.7919 19.8982 55.2025 20.1557 54.7629 20.5954C54.3232 21.0351 54.0656 21.6244 54.0416 22.2458C54.0176 22.8671 54.229 23.4746 54.6334 23.9469L67.6931 37.0312H24.2678C23.613 37.0312 22.9851 37.2914 22.5221 37.7543C22.0591 38.2173 21.799 38.8452 21.799 39.5C21.799 40.1548 22.0591 40.7827 22.5221 41.2457C22.9851 41.7087 23.613 41.9688 24.2678 41.9688H67.6931L54.6334 55.0284C54.375 55.2498 54.1651 55.5221 54.0169 55.8284C53.8687 56.1347 53.7854 56.4683 53.7723 56.8083C53.7592 57.1483 53.8165 57.4873 53.9406 57.8041C54.0647 58.1209 54.253 58.4086 54.4935 58.6492C54.7341 58.8898 55.0219 59.0781 55.3387 59.2022C55.6555 59.3263 55.9945 59.3836 56.3345 59.3705C56.6745 59.3573 57.0081 59.2741 57.3144 59.1259C57.6207 58.9777 57.893 58.7678 58.1143 58.5094L75.3956 41.2281C75.6265 41.0028 75.811 40.7344 75.9387 40.4381Z" fill="#231815"/>
</svg>
